<svg data-v-fde0c5aa="" xmlns="http://www.w3.org/2000/svg" viewBox="0 0 300 300" class="iconLeftSlogan"><!----><defs data-v-fde0c5aa=""><!----></defs><rect data-v-fde0c5aa="" fill="#F5F1F2" x="0" y="0" width="300px" height="300px" class="logo-background-square"></rect><defs data-v-fde0c5aa=""><!----></defs><g data-v-fde0c5aa="" id="a73d388c-3fb6-4720-9a3a-839591b66888" fill="#2C0D0D" transform="matrix(1.4355906580425148,0,0,1.4355906580425148,88.7771087885931,128.9172400788392)"><path d="M0.22 3.35L7.69 3.35L7.69 4.52L4.63 4.52L4.63 13.05L3.28 13.05L3.28 4.52L0.22 4.52L0.22 3.35ZM7.85 9.42L7.85 9.42Q7.85 8.46 8.13 7.74Q8.41 7.01 8.88 6.54Q9.34 6.06 9.94 5.82Q10.54 5.59 11.17 5.59L11.17 5.59Q12.64 5.59 13.43 6.50Q14.21 7.42 14.21 9.30L14.21 9.30Q14.21 9.38 14.21 9.51Q14.21 9.65 14.20 9.76L14.20 9.76L9.21 9.76Q9.30 10.89 9.87 11.48Q10.44 12.07 11.66 12.07L11.66 12.07Q12.35 12.07 12.82 11.95Q13.29 11.83 13.52 11.72L13.52 11.72L13.71 12.81Q13.47 12.94 12.87 13.08Q12.28 13.22 11.52 13.22L11.52 13.22Q10.57 13.22 9.88 12.93Q9.18 12.64 8.74 12.14Q8.29 11.63 8.07 10.94Q7.85 10.25 7.85 9.42ZM9.24 8.71L12.85 8.71Q12.87 7.83 12.41 7.26Q11.96 6.69 11.16 6.69L11.16 6.69Q10.71 6.69 10.37 6.87Q10.02 7.04 9.79 7.32Q9.55 7.60 9.42 7.97Q9.28 8.33 9.24 8.71L9.24 8.71ZM19.25 13.22L19.25 13.22Q18.37 13.22 17.70 12.94Q17.04 12.66 16.58 12.15Q16.13 11.65 15.90 10.96Q15.68 10.26 15.68 9.42L15.68 9.42Q15.68 8.58 15.93 7.88Q16.17 7.18 16.62 6.67Q17.07 6.16 17.72 5.87Q18.37 5.59 19.17 5.59L19.17 5.59Q19.66 5.59 20.15 5.67Q20.64 5.75 21.08 5.94L21.08 5.94L20.79 7.04Q20.50 6.90 20.11 6.82Q19.73 6.73 19.29 6.73L19.29 6.73Q18.20 6.73 17.62 7.42Q17.04 8.11 17.04 9.42L17.04 9.42Q17.04 10.01 17.17 10.50Q17.30 10.99 17.59 11.34Q17.88 11.69 18.33 11.88Q18.77 12.07 19.42 12.07L19.42 12.07Q19.94 12.07 20.36 11.97Q20.78 11.87 21.01 11.76L21.01 11.76L21.20 12.85Q21.08 12.92 20.87 12.98Q20.66 13.05 20.40 13.10Q20.13 13.15 19.83 13.18Q19.53 13.22 19.25 13.22ZM23.90 13.05L22.60 13.05L22.60 2.41L23.90 2.18L23.90 5.91Q24.26 5.77 24.68 5.69Q25.09 5.61 25.49 5.61L25.49 5.61Q26.36 5.61 26.94 5.86Q27.51 6.10 27.85 6.54Q28.20 6.99 28.34 7.60Q28.48 8.22 28.48 8.96L28.48 8.96L28.48 13.05L27.17 13.05L27.17 9.24Q27.17 8.57 27.08 8.09Q26.99 7.62 26.78 7.32Q26.57 7.03 26.22 6.89Q25.87 6.76 25.35 6.76L25.35 6.76Q25.14 6.76 24.92 6.79Q24.70 6.82 24.49 6.85Q24.29 6.89 24.13 6.93Q23.97 6.97 23.90 7L23.90 7L23.90 13.05ZM38.08 13.26L38.08 13.26Q37.06 13.26 36.22 12.92Q35.38 12.59 34.78 11.94Q34.17 11.30 33.84 10.35Q33.52 9.41 33.52 8.19L33.52 8.19Q33.52 6.97 33.89 6.03Q34.26 5.08 34.89 4.44Q35.52 3.79 36.36 3.46Q37.20 3.12 38.15 3.12L38.15 3.12Q38.75 3.12 39.23 3.21Q39.72 3.29 40.08 3.40Q40.43 3.51 40.66 3.63Q40.88 3.74 40.96 3.79L40.96 3.79L40.57 4.91Q40.45 4.83 40.21 4.73Q39.97 4.63 39.67 4.54Q39.37 4.44 39.01 4.38Q38.65 4.31 38.29 4.31L38.29 4.31Q37.52 4.31 36.90 4.58Q36.29 4.84 35.85 5.35Q35.42 5.85 35.19 6.57Q34.96 7.29 34.96 8.19L34.96 8.19Q34.96 9.06 35.16 9.77Q35.36 10.49 35.77 11.00Q36.18 11.51 36.79 11.79Q37.39 12.07 38.21 12.07L38.21 12.07Q39.14 12.07 39.76 11.87Q40.38 11.68 40.68 11.52L40.68 11.52L41.03 12.64Q40.94 12.71 40.68 12.82Q40.43 12.92 40.05 13.02Q39.68 13.12 39.17 13.19Q38.67 13.26 38.08 13.26ZM48.72 9.41L48.72 9.41Q48.72 10.28 48.47 10.98Q48.22 11.68 47.76 12.18Q47.31 12.68 46.68 12.96Q46.05 13.23 45.30 13.23L45.30 13.23Q44.56 13.23 43.93 12.96Q43.30 12.68 42.85 12.18Q42.39 11.68 42.14 10.98Q41.89 10.28 41.89 9.41L41.89 9.41Q41.89 8.55 42.14 7.85Q42.39 7.14 42.85 6.64Q43.30 6.13 43.93 5.86Q44.56 5.59 45.30 5.59L45.30 5.59Q46.05 5.59 46.68 5.86Q47.31 6.13 47.76 6.64Q48.22 7.14 48.47 7.85Q48.72 8.55 48.72 9.41ZM47.36 9.41L47.36 9.41Q47.36 8.18 46.81 7.46Q46.26 6.73 45.30 6.73L45.30 6.73Q44.35 6.73 43.80 7.46Q43.25 8.18 43.25 9.41L43.25 9.41Q43.25 10.64 43.80 11.36Q44.35 12.08 45.30 12.08L45.30 12.08Q46.26 12.08 46.81 11.36Q47.36 10.64 47.36 9.41ZM50.55 13.05L50.55 5.98Q51.00 5.87 51.74 5.74Q52.49 5.61 53.45 5.61L53.45 5.61Q54.32 5.61 54.89 5.86Q55.47 6.10 55.81 6.54Q56.15 6.99 56.29 7.60Q56.43 8.22 56.43 8.96L56.43 8.96L56.43 13.05L55.13 13.05L55.13 9.24Q55.13 8.57 55.04 8.09Q54.95 7.62 54.74 7.32Q54.53 7.03 54.18 6.89Q53.83 6.76 53.31 6.76L53.31 6.76Q53.10 6.76 52.88 6.78Q52.65 6.79 52.45 6.81Q52.25 6.83 52.09 6.86Q51.93 6.89 51.86 6.90L51.86 6.90L51.86 13.05L50.55 13.05ZM58.59 13.05L58.59 5.98Q59.04 5.87 59.78 5.74Q60.52 5.61 61.49 5.61L61.49 5.61Q62.36 5.61 62.93 5.86Q63.50 6.10 63.85 6.54Q64.19 6.99 64.33 7.60Q64.47 8.22 64.47 8.96L64.47 8.96L64.47 13.05L63.17 13.05L63.17 9.24Q63.17 8.57 63.08 8.09Q62.99 7.62 62.78 7.32Q62.57 7.03 62.22 6.89Q61.87 6.76 61.35 6.76L61.35 6.76Q61.14 6.76 60.91 6.78Q60.69 6.79 60.49 6.81Q60.28 6.83 60.12 6.86Q59.96 6.89 59.89 6.90L59.89 6.90L59.89 13.05L58.59 13.05ZM66.22 9.42L66.22 9.42Q66.22 8.46 66.50 7.74Q66.78 7.01 67.24 6.54Q67.70 6.06 68.31 5.82Q68.91 5.59 69.54 5.59L69.54 5.59Q71.01 5.59 71.79 6.50Q72.58 7.42 72.58 9.30L72.58 9.30Q72.58 9.38 72.58 9.51Q72.58 9.65 72.56 9.76L72.56 9.76L67.58 9.76Q67.66 10.89 68.24 11.48Q68.81 12.07 70.03 12.07L70.03 12.07Q70.71 12.07 71.18 11.95Q71.65 11.83 71.89 11.72L71.89 11.72L72.07 12.81Q71.83 12.94 71.24 13.08Q70.64 13.22 69.89 13.22L69.89 13.22Q68.94 13.22 68.24 12.93Q67.55 12.64 67.10 12.14Q66.65 11.63 66.44 10.94Q66.22 10.25 66.22 9.42ZM67.61 8.71L71.22 8.71Q71.23 7.83 70.78 7.26Q70.32 6.69 69.52 6.69L69.52 6.69Q69.08 6.69 68.73 6.87Q68.39 7.04 68.15 7.32Q67.91 7.60 67.78 7.97Q67.65 8.33 67.61 8.71L67.61 8.71ZM77.62 13.22L77.62 13.22Q76.73 13.22 76.07 12.94Q75.40 12.66 74.95 12.15Q74.49 11.65 74.27 10.96Q74.05 10.26 74.05 9.42L74.05 9.42Q74.05 8.58 74.29 7.88Q74.54 7.18 74.98 6.67Q75.43 6.16 76.08 5.87Q76.73 5.59 77.53 5.59L77.53 5.59Q78.02 5.59 78.51 5.67Q79.00 5.75 79.45 5.94L79.45 5.94L79.16 7.04Q78.86 6.90 78.48 6.82Q78.09 6.73 77.66 6.73L77.66 6.73Q76.57 6.73 75.98 7.42Q75.40 8.11 75.40 9.42L75.40 9.42Q75.40 10.01 75.54 10.50Q75.67 10.99 75.96 11.34Q76.24 11.69 76.69 11.88Q77.14 12.07 77.78 12.07L77.78 12.07Q78.30 12.07 78.72 11.97Q79.14 11.87 79.38 11.76L79.38 11.76L79.56 12.85Q79.45 12.92 79.24 12.98Q79.03 13.05 78.76 13.10Q78.50 13.15 78.20 13.18Q77.90 13.22 77.62 13.22ZM82.18 3.51L82.18 5.77L84.94 5.77L84.94 6.86L82.18 6.86L82.18 10.22Q82.18 10.77 82.26 11.12Q82.35 11.48 82.52 11.68Q82.68 11.89 82.94 11.97Q83.19 12.05 83.52 12.05L83.52 12.05Q84.11 12.05 84.47 11.92Q84.83 11.79 84.97 11.73L84.97 11.73L85.22 12.81Q85.02 12.91 84.53 13.05Q84.04 13.20 83.41 13.20L83.41 13.20Q82.67 13.20 82.19 13.01Q81.70 12.82 81.41 12.45Q81.12 12.07 81.00 11.52Q80.88 10.96 80.88 10.23L80.88 10.23L80.88 3.74L82.18 3.51ZM95.24 5.82L95.24 5.82Q95.24 6.33 95.04 6.80Q94.84 7.27 94.50 7.72Q94.16 8.18 93.74 8.62Q93.32 9.06 92.90 9.48L92.90 9.48Q92.67 9.72 92.35 10.04Q92.04 10.36 91.76 10.71Q91.48 11.06 91.29 11.38Q91.10 11.70 91.10 11.94L91.10 11.94L95.56 11.94L95.56 13.05L89.68 13.05Q89.67 12.96 89.67 12.88Q89.67 12.80 89.67 12.73L89.67 12.73Q89.67 12.07 89.89 11.50Q90.10 10.93 90.45 10.43Q90.80 9.93 91.24 9.48Q91.67 9.03 92.09 8.61L92.09 8.61Q92.44 8.27 92.76 7.95Q93.07 7.62 93.32 7.29Q93.56 6.96 93.71 6.61Q93.86 6.26 93.86 5.87L93.86 5.87Q93.86 5.45 93.72 5.15Q93.59 4.86 93.37 4.66Q93.14 4.47 92.84 4.38Q92.54 4.28 92.20 4.28L92.20 4.28Q91.80 4.28 91.46 4.40Q91.13 4.51 90.86 4.65Q90.59 4.80 90.41 4.96Q90.23 5.12 90.13 5.21L90.13 5.21L89.49 4.28Q89.61 4.14 89.87 3.94Q90.12 3.74 90.47 3.56Q90.82 3.37 91.25 3.25Q91.69 3.12 92.19 3.12L92.19 3.12Q93.72 3.12 94.48 3.83Q95.24 4.54 95.24 5.82ZM97.30 8.19L97.30 8.19Q97.30 5.75 98.16 4.44Q99.02 3.12 100.55 3.12L100.55 3.12Q102.07 3.12 102.93 4.44Q103.80 5.75 103.80 8.19L103.80 8.19Q103.80 10.63 102.93 11.94Q102.07 13.26 100.55 13.26L100.55 13.26Q99.02 13.26 98.16 11.94Q97.30 10.63 97.30 8.19ZM102.42 8.19L102.42 8.19Q102.42 7.39 102.33 6.68Q102.24 5.96 102.02 5.43Q101.81 4.90 101.44 4.58Q101.08 4.27 100.55 4.27L100.55 4.27Q100.02 4.27 99.65 4.58Q99.29 4.90 99.07 5.43Q98.85 5.96 98.76 6.68Q98.67 7.39 98.67 8.19L98.67 8.19Q98.67 8.99 98.76 9.70Q98.85 10.42 99.07 10.95Q99.29 11.48 99.65 11.79Q100.02 12.11 100.55 12.11L100.55 12.11Q101.08 12.11 101.44 11.79Q101.81 11.48 102.02 10.95Q102.24 10.42 102.33 9.70Q102.42 8.99 102.42 8.19ZM111.03 5.82L111.03 5.82Q111.03 6.33 110.83 6.80Q110.63 7.27 110.29 7.72Q109.96 8.18 109.54 8.62Q109.12 9.06 108.70 9.48L108.70 9.48Q108.46 9.72 108.14 10.04Q107.83 10.36 107.55 10.71Q107.27 11.06 107.08 11.38Q106.89 11.70 106.89 11.94L106.89 11.94L111.36 11.94L111.36 13.05L105.48 13.05Q105.46 12.96 105.46 12.88Q105.46 12.80 105.46 12.73L105.46 12.73Q105.46 12.07 105.68 11.50Q105.90 10.93 106.25 10.43Q106.60 9.93 107.03 9.48Q107.46 9.03 107.88 8.61L107.88 8.61Q108.23 8.27 108.55 7.95Q108.86 7.62 109.11 7.29Q109.35 6.96 109.50 6.61Q109.65 6.26 109.65 5.87L109.65 5.87Q109.65 5.45 109.52 5.15Q109.38 4.86 109.16 4.66Q108.93 4.47 108.63 4.38Q108.33 4.28 108.00 4.28L108.00 4.28Q107.59 4.28 107.25 4.40Q106.92 4.51 106.65 4.65Q106.39 4.80 106.20 4.96Q106.02 5.12 105.92 5.21L105.92 5.21L105.28 4.28Q105.41 4.14 105.66 3.94Q105.91 3.74 106.26 3.56Q106.61 3.37 107.04 3.25Q107.48 3.12 107.98 3.12L107.98 3.12Q109.51 3.12 110.27 3.83Q111.03 4.54 111.03 5.82ZM115.18 7.08L115.18 7.08Q117.29 7.17 118.28 8.01Q119.27 8.85 119.27 10.29L119.27 10.29Q119.27 10.93 119.05 11.48Q118.83 12.03 118.39 12.42Q117.95 12.81 117.28 13.03Q116.61 13.26 115.68 13.26L115.68 13.26Q115.32 13.26 114.94 13.20Q114.56 13.15 114.24 13.06Q113.92 12.98 113.67 12.89Q113.41 12.81 113.30 12.75L113.30 12.75L113.55 11.62Q113.79 11.73 114.33 11.91Q114.87 12.10 115.65 12.10L115.65 12.10Q116.28 12.10 116.71 11.96Q117.14 11.82 117.40 11.58Q117.67 11.34 117.79 11.03Q117.91 10.71 117.91 10.36L117.91 10.36Q117.91 9.83 117.73 9.41Q117.54 9.00 117.08 8.72Q116.62 8.44 115.85 8.29Q115.08 8.15 113.90 8.15L113.90 8.15Q113.99 7.46 114.04 6.86Q114.09 6.26 114.13 5.68Q114.17 5.11 114.20 4.54Q114.23 3.98 114.25 3.35L114.25 3.35L118.93 3.35L118.93 4.45L115.39 4.45Q115.37 4.66 115.35 5.02Q115.32 5.38 115.29 5.76Q115.26 6.15 115.23 6.51Q115.21 6.87 115.18 7.08Z"></path></g><defs data-v-fde0c5aa=""><linearGradient data-v-fde0c5aa="" gradientTransform="rotate(25)" id="1988a58a-cdc5-46f9-a2b2-5a17a533bc35" x1="0%" y1="0%" x2="100%" y2="0%"><stop data-v-fde0c5aa="" offset="0%" stop-color="#DE3837" stop-opacity="1"></stop><stop data-v-fde0c5aa="" offset="100%" stop-color="#D2D4D6" stop-opacity="1"></stop></linearGradient></defs><g data-v-fde0c5aa="" id="c84846e0-9916-4b02-af80-9e119e2d948a" stroke="none" fill="url(#1988a58a-cdc5-46f9-a2b2-5a17a533bc35)" transform="matrix(0.4755578286218057,0,0,0.4755578286218057,34.27428421506184,126.22805295106204)"><ellipse cx="50.502" cy="50.329" rx="19.58" ry="15.816"></ellipse><path d="M50.503 11.518a4.3 4.3 0 014.301 4.301 4.3 4.3 0 01-4.301 4.302 4.3 4.3 0 01-4.302-4.302 4.3 4.3 0 014.302-4.301zM58.216 32.623v-8.454a3.362 3.362 0 00-3.36-3.36H46.15a3.36 3.36 0 00-3.36 3.36v8.454h15.426zM50.503 67.352a4.3 4.3 0 014.301 4.301 4.3 4.3 0 01-4.301 4.302 4.3 4.3 0 01-4.302-4.302 4.3 4.3 0 014.302-4.301zM58.216 88.457v-8.454a3.362 3.362 0 00-3.36-3.36H46.15a3.36 3.36 0 00-3.36 3.36v8.454h15.426zM80.223 39.31a4.301 4.301 0 11-.001 8.603 4.301 4.301 0 01.001-8.603zM87.936 60.415v-8.454a3.362 3.362 0 00-3.361-3.36H75.87a3.361 3.361 0 00-3.361 3.36v8.454h15.427zM19.753 39.31a4.301 4.301 0 11-.001 8.603 4.301 4.301 0 01.001-8.603zM27.466 60.415v-8.454a3.362 3.362 0 00-3.36-3.36H15.4a3.36 3.36 0 00-3.36 3.36v8.454h15.426z"></path></g><defs data-v-fde0c5aa=""><!----></defs><g data-v-fde0c5aa="" id="3fc1284a-f3d4-40f1-b3cd-779aa89365b6" fill="#2C0D0D" transform="matrix(0.5077603705630676,0,0,0.5077603705630676,88.95076582728814,156.27756299214587)"><path d="M0.28 3.65L0.28 3.65Q0.28 3.46 0.67 3.46L0.67 3.46Q0.73 3.46 0.85 3.47Q0.98 3.49 1.05 3.49L1.05 3.49Q1.09 3.49 2.37 3.52Q3.64 3.56 4.47 3.56L4.47 3.56Q4.76 3.56 5.92 3.53Q7.07 3.50 7.27 3.50L7.27 3.50Q7.53 3.50 7.53 3.82L7.53 3.82Q7.53 3.91 7.45 4.38Q7.36 4.84 7.36 5.25L7.36 5.25Q7.36 5.38 7.29 5.47Q7.22 5.56 7.14 5.56L7.14 5.56Q6.93 5.56 6.93 5.26L6.93 5.26Q6.93 4.89 6.69 4.58Q6.45 4.27 6.10 4.26L6.10 4.26Q4.84 4.16 4.17 4.16L4.17 4.16L3.81 4.16Q3.08 4.16 2.96 4.26Q2.84 4.37 2.81 5.01L2.81 5.01Q2.76 6.02 2.76 7.35L2.76 7.35Q2.76 8.05 3.02 8.06L3.02 8.06L3.37 8.06L3.96 8.06L4.40 8.06Q5.24 8.06 5.52 8.01Q5.80 7.95 6.02 7.80L6.02 7.80Q6.29 7.62 6.34 7.28L6.34 7.28Q6.38 7.04 6.54 7.04L6.54 7.04Q6.66 7.04 6.69 7.08Q6.72 7.13 6.72 7.27L6.72 7.27Q6.72 7.36 6.66 7.91Q6.61 8.46 6.61 8.74L6.61 8.74Q6.61 9.00 6.63 9.24Q6.65 9.48 6.65 9.59L6.65 9.59Q6.65 9.94 6.55 9.94L6.55 9.94Q6.34 9.94 6.24 9.60L6.24 9.60Q6.05 9.02 5.89 8.92L5.89 8.92Q5.60 8.72 4.55 8.72L4.55 8.72Q4.13 8.72 3.87 8.72Q3.61 8.72 3.54 8.71Q3.46 8.71 3.41 8.71Q3.36 8.71 3.32 8.71L3.32 8.71Q2.74 8.71 2.74 8.97L2.74 8.97Q2.74 9.38 2.73 9.99Q2.72 10.60 2.72 10.99L2.72 10.99L2.72 11.55Q2.72 12.56 3.05 12.66L3.05 12.66Q3.40 12.77 3.65 12.77L3.65 12.77Q4.70 12.77 5.50 12.67Q6.29 12.57 6.69 12.42Q7.08 12.28 7.35 12.10Q7.62 11.93 7.69 11.78Q7.77 11.63 7.85 11.54Q7.92 11.44 8.01 11.44L8.01 11.44Q8.18 11.44 8.18 11.68L8.18 11.68Q8.18 12.28 7.57 12.89Q6.97 13.51 6.52 13.51L6.52 13.51Q5.52 13.51 4.25 13.44Q2.98 13.37 2.67 13.37L2.67 13.37Q2.28 13.37 1.69 13.43Q1.11 13.50 0.77 13.50L0.77 13.50Q0.48 13.50 0.48 13.36L0.48 13.36Q0.48 13.23 0.48 13.19Q0.48 13.15 0.52 13.12Q0.56 13.09 0.61 13.08Q0.66 13.08 0.79 13.03Q0.92 12.99 1.08 12.92L1.08 12.92Q1.41 12.75 1.52 12.26Q1.62 11.77 1.62 10.21L1.62 10.21L1.62 8.47Q1.62 8.09 1.65 7.29Q1.67 6.50 1.67 6.05L1.67 6.05Q1.67 5.67 1.64 4.77L1.64 4.77Q1.62 4.37 1.29 4.14Q0.95 3.92 0.50 3.91L0.50 3.91Q0.28 3.91 0.28 3.65ZM15.74 3.77L15.74 3.77Q15.74 3.68 15.83 3.60Q15.93 3.53 16.09 3.53L16.09 3.53Q16.17 3.53 16.37 3.54Q16.56 3.54 16.62 3.54L16.62 3.54Q16.83 3.54 17.01 3.53Q17.19 3.51 17.30 3.51L17.30 3.51Q17.43 3.51 17.60 3.59Q17.77 3.67 17.79 3.75L17.79 3.75Q17.82 3.79 17.95 3.94Q18.07 4.09 18.28 4.33Q18.49 4.56 18.66 4.79L18.66 4.79Q20.57 7.27 23.76 10.77L23.76 10.77Q23.84 10.86 23.96 10.99Q24.08 11.12 24.13 11.18Q24.18 11.24 24.23 11.30Q24.29 11.35 24.32 11.38Q24.36 11.40 24.39 11.40L24.39 11.40Q24.53 11.40 24.53 10.53L24.53 10.53L24.53 8.89Q24.53 7.95 24.52 7.31Q24.51 6.66 24.51 6.38Q24.50 6.09 24.50 6.02L24.50 6.02L24.50 5.92Q24.50 5.45 24.44 5.11Q24.37 4.77 24.29 4.59Q24.21 4.41 24.05 4.28Q23.88 4.16 23.77 4.12Q23.66 4.09 23.45 4.05Q23.24 4.00 23.16 3.98L23.16 3.98Q22.88 3.89 22.88 3.74L22.88 3.74Q22.88 3.53 23.14 3.53L23.14 3.53Q23.23 3.53 23.81 3.54Q24.40 3.54 24.47 3.54L24.47 3.54Q24.81 3.54 25.22 3.53Q25.63 3.51 25.73 3.51L25.73 3.51Q25.97 3.51 26.06 3.56Q26.15 3.61 26.15 3.75L26.15 3.75Q26.15 3.81 26.07 3.86Q26.00 3.91 25.91 3.94Q25.83 3.98 25.75 4.00L25.75 4.00L25.66 4.03Q25.20 4.28 25.20 5.61L25.20 5.61L25.20 6.15Q25.20 7.21 25.12 9.83Q25.05 12.46 25.05 13.08L25.05 13.08L25.05 13.36Q25.05 13.68 24.85 13.68L24.85 13.68Q24.72 13.68 24.63 13.58L24.63 13.58Q19.98 8.19 19.07 7.17Q18.17 6.16 18.07 6.16L18.07 6.16Q17.93 6.16 17.93 7.11L17.93 7.11Q17.93 8.44 17.88 9.97Q17.82 11.51 17.82 11.65L17.82 11.65Q17.82 12.28 18.04 12.61Q18.26 12.94 18.51 12.98Q18.76 13.02 18.98 13.07Q19.19 13.12 19.19 13.26L19.19 13.26Q19.19 13.41 19.14 13.45Q19.10 13.50 18.97 13.50L18.97 13.50Q18.87 13.50 18.53 13.48Q18.19 13.47 17.47 13.47L17.47 13.47Q17.35 13.47 16.95 13.48Q16.56 13.50 16.28 13.50L16.28 13.50Q15.97 13.50 15.97 13.27L15.97 13.27Q15.97 13.15 16.16 13.11Q16.34 13.08 16.60 12.89Q16.87 12.71 17.01 12.21L17.01 12.21Q17.09 11.89 17.22 9.60Q17.35 7.32 17.35 6.45L17.35 6.45Q17.35 5.25 17.01 4.65Q16.67 4.06 15.92 3.98L15.92 3.98Q15.74 3.96 15.74 3.77ZM33.91 3.70L33.91 3.70Q33.91 3.47 34.31 3.47L34.31 3.47L36.64 3.47Q36.96 3.47 37.38 3.45Q37.80 3.43 38.04 3.43L38.04 3.43Q39.30 3.43 40.19 4.07Q41.09 4.70 41.09 5.78L41.09 5.78Q41.09 6.50 40.82 7.03Q40.54 7.57 40.22 7.81Q39.89 8.05 39.61 8.22Q39.34 8.40 39.34 8.46L39.34 8.46Q39.34 8.62 40.52 10.27Q41.69 11.91 42.13 12.38L42.13 12.38Q42.66 13.03 43.41 13.03L43.41 13.03Q43.61 13.03 43.61 13.20L43.61 13.20Q43.61 13.41 43.44 13.48Q43.27 13.55 42.57 13.55L42.57 13.55Q41.92 13.55 41.37 13.23L41.37 13.23Q40.67 12.82 39.00 10.09L39.00 10.09Q38.91 9.94 38.86 9.87L38.86 9.87Q38.19 8.78 37.83 8.78L37.83 8.78L37.53 8.78L36.68 8.78Q36.51 8.78 36.48 8.92Q36.44 9.06 36.44 9.77L36.44 9.77Q36.44 10.44 36.44 10.88Q36.44 11.31 36.45 11.43Q36.46 11.55 36.46 11.63Q36.46 11.70 36.46 11.75L36.46 11.75Q36.46 12.32 36.72 12.63Q36.99 12.95 37.32 13.00Q37.65 13.05 37.91 13.11Q38.18 13.17 38.18 13.31L38.18 13.31Q38.18 13.54 37.93 13.54L37.93 13.54Q37.91 13.54 36.96 13.49Q36.01 13.44 35.92 13.44L35.92 13.44Q35.52 13.44 34.96 13.47Q34.40 13.50 34.38 13.50L34.38 13.50Q34.09 13.50 34.09 13.27L34.09 13.27Q34.09 13.12 34.27 13.05Q34.45 12.99 34.68 12.96Q34.90 12.94 35.08 12.66Q35.27 12.38 35.27 11.86L35.27 11.86Q35.27 11.49 35.27 9.90Q35.28 8.30 35.28 7.45L35.28 7.45Q35.28 6.58 35.27 5.86Q35.27 5.14 35.27 5.08L35.27 5.08Q35.27 4.56 35.06 4.29Q34.85 4.02 34.59 3.98Q34.33 3.95 34.12 3.89Q33.91 3.84 33.91 3.70ZM36.44 5.54L36.44 5.94Q36.44 7.38 36.46 7.72Q36.47 8.06 36.55 8.12L36.55 8.12Q36.76 8.25 37.16 8.25L37.16 8.25L37.30 8.25L37.70 8.25Q38.89 8.25 39.40 7.70Q39.91 7.15 39.91 6.30L39.91 6.30Q39.91 5.43 39.23 4.72Q38.56 4.00 37.18 4.00L37.18 4.00Q36.67 4.00 36.55 4.28Q36.44 4.55 36.44 5.54L36.44 5.54ZM50.96 3.71L50.96 3.71Q50.96 3.50 51.35 3.50L51.35 3.50Q51.49 3.50 52.00 3.53Q52.50 3.56 52.93 3.56L52.93 3.56Q53.20 3.56 53.45 3.54Q53.69 3.53 54.17 3.53L54.17 3.53Q54.54 3.53 54.54 3.72L54.54 3.72Q54.54 3.84 53.90 4.10L53.90 4.10Q53.45 4.28 53.45 5.71L53.45 5.71Q53.45 7.60 53.43 9.05Q53.41 10.50 53.41 10.89L53.41 10.89Q53.41 12.07 53.76 12.59L53.76 12.59Q54.07 13.02 54.43 13.02L54.43 13.02Q54.46 13.02 54.57 13.03Q54.68 13.03 54.71 13.03L54.71 13.03Q54.81 13.03 54.91 13.08Q55.01 13.13 55.01 13.19L55.01 13.19Q55.01 13.34 54.93 13.39Q54.85 13.44 54.66 13.44L54.66 13.44Q54.24 13.44 53.88 13.41Q53.52 13.38 53.33 13.38L53.33 13.38Q52.93 13.38 52.47 13.42Q52.01 13.45 51.79 13.45L51.79 13.45Q51.16 13.45 51.16 13.24L51.16 13.24Q51.16 13.12 51.29 13.07Q51.42 13.02 51.59 13.00Q51.76 12.98 51.94 12.82Q52.12 12.66 52.19 12.35L52.19 12.35Q52.22 12.25 52.28 10.76Q52.35 9.27 52.35 8.61L52.35 8.61L52.35 7.81Q52.35 7.63 52.35 7.12Q52.36 6.61 52.36 6.30L52.36 6.30L52.36 5.66Q52.36 5.04 52.30 4.63L52.30 4.63Q52.26 4.30 51.93 4.12Q51.60 3.93 51.25 3.92L51.25 3.92Q50.96 3.91 50.96 3.71ZM62.89 8.90L62.89 8.90Q62.89 7.38 63.48 6.16Q64.06 4.94 65.29 4.19Q66.51 3.44 68.19 3.44L68.19 3.44Q69.05 3.44 69.92 3.70Q70.78 3.95 71.30 4.20L71.30 4.20L71.82 4.47Q71.86 4.47 71.96 4.40Q72.06 4.33 72.11 4.33L72.11 4.33Q72.18 4.33 72.25 4.38Q72.32 4.44 72.32 4.55L72.32 4.55Q72.34 4.96 72.39 5.41Q72.44 5.87 72.48 6.16Q72.52 6.45 72.52 6.51L72.52 6.51Q72.52 6.76 72.35 6.76L72.35 6.76Q72.23 6.76 72.11 6.57L72.11 6.57Q70.76 4.02 68.19 4.02L68.19 4.02Q66.44 4.02 65.32 5.14Q64.20 6.26 64.20 8.06L64.20 8.06Q64.20 9.06 64.46 9.93Q64.72 10.79 65.25 11.51Q65.77 12.24 66.70 12.66Q67.62 13.08 68.85 13.08L68.85 13.08Q70.87 13.08 72.24 10.98L72.24 10.98Q72.30 10.88 72.45 10.88L72.45 10.88Q72.58 10.88 72.58 11.07L72.58 11.07Q72.58 11.23 72.53 11.49Q72.48 11.75 72.41 12.06Q72.34 12.38 72.32 12.45L72.32 12.45Q72.30 12.60 72.10 12.70L72.10 12.70Q71.34 13.06 70.92 13.24Q70.49 13.43 69.83 13.57Q69.17 13.72 68.49 13.72L68.49 13.72Q67.27 13.72 66.29 13.43Q65.31 13.13 64.69 12.66Q64.06 12.18 63.64 11.54Q63.22 10.91 63.06 10.25Q62.89 9.60 62.89 8.90ZM80.85 3.65L80.85 3.65Q80.85 3.50 81.24 3.50L81.24 3.50Q81.38 3.50 81.89 3.53Q82.39 3.56 82.82 3.56L82.82 3.56Q83.09 3.56 83.33 3.54Q83.58 3.53 84.06 3.53L84.06 3.53Q84.36 3.53 84.36 3.72L84.36 3.72Q84.36 3.96 83.87 3.96L83.87 3.96Q83.59 3.96 83.47 4.54Q83.34 5.11 83.34 5.71L83.34 5.71L83.34 6.23Q83.34 6.57 83.33 6.99Q83.31 7.42 83.31 7.52L83.31 7.52Q83.31 7.87 83.40 7.97Q83.48 8.06 83.79 8.06L83.79 8.06Q83.82 8.06 84.34 8.06Q84.85 8.05 86.09 8.05L86.09 8.05Q86.20 8.05 86.46 8.06Q86.73 8.06 87.34 8.07Q87.95 8.08 88.73 8.08L88.73 8.08Q88.83 8.08 88.86 7.84L88.86 7.84Q88.89 7.56 88.89 6.13L88.89 6.13L88.89 5.38Q88.89 4.83 88.77 4.51Q88.65 4.19 88.47 4.09Q88.30 3.99 88.12 3.96Q87.95 3.93 87.83 3.88Q87.71 3.84 87.71 3.70Q87.71 3.56 88.26 3.56L88.26 3.56Q88.40 3.56 88.86 3.57Q89.32 3.58 89.61 3.58L89.61 3.58Q89.75 3.58 90.09 3.57Q90.43 3.56 90.71 3.56L90.71 3.56Q91.03 3.56 91.03 3.74Q91.03 3.92 90.83 3.92L90.83 3.92Q90.44 3.92 90.24 4.16Q90.03 4.40 90.03 4.79L90.03 4.79Q90.03 5.25 90.01 6.42Q89.99 7.59 89.99 8.19L89.99 8.19Q89.99 8.51 89.98 9.20Q89.96 9.90 89.96 10.29L89.96 10.29L89.96 10.81Q89.96 11.23 89.99 11.58Q90.02 11.94 90.02 12.10L90.02 12.10Q90.02 13.01 91.20 13.13L91.20 13.13Q91.36 13.13 91.36 13.29L91.36 13.29Q91.36 13.38 91.22 13.41Q91.08 13.44 90.68 13.44L90.68 13.44Q90.52 13.44 90.17 13.40Q89.81 13.37 89.60 13.37L89.60 13.37Q89.35 13.37 88.99 13.40Q88.63 13.44 88.28 13.44L88.28 13.44Q88.12 13.44 88.05 13.44Q87.98 13.44 87.90 13.42Q87.82 13.40 87.80 13.36Q87.78 13.33 87.78 13.26L87.78 13.26Q87.78 13.17 87.92 13.10Q88.06 13.03 88.23 12.99Q88.40 12.95 88.56 12.83Q88.72 12.71 88.75 12.53L88.75 12.53Q88.84 12.03 88.84 11.51L88.84 11.51Q88.84 11.37 88.85 11.12Q88.86 10.86 88.86 10.75L88.86 10.75Q88.86 10.50 88.87 9.93Q88.89 9.35 88.89 9.03L88.89 9.03Q88.89 8.82 88.72 8.74Q88.55 8.65 88.00 8.65L88.00 8.65Q87.79 8.65 87.04 8.68L87.04 8.68L86.28 8.69Q85.67 8.69 84.90 8.67Q84.13 8.65 83.71 8.65L83.71 8.65Q83.50 8.65 83.43 8.74Q83.36 8.82 83.36 9.17Q83.36 9.52 83.33 10.08Q83.30 10.64 83.30 10.89L83.30 10.89L83.30 11.49Q83.30 12.10 83.41 12.39Q83.52 12.68 83.96 12.96L83.96 12.96Q84.07 13.03 84.56 13.03L84.56 13.03Q84.66 13.03 84.74 13.08Q84.83 13.13 84.83 13.19L84.83 13.19Q84.83 13.44 84.38 13.44L84.38 13.44Q83.96 13.44 83.68 13.41Q83.41 13.38 83.22 13.38L83.22 13.38Q82.82 13.38 82.38 13.42Q81.93 13.45 81.70 13.45L81.70 13.45Q81.05 13.45 81.05 13.24L81.05 13.24Q81.05 13.12 81.18 13.07Q81.31 13.02 81.48 13.00Q81.65 12.98 81.83 12.82Q82.01 12.66 82.08 12.35L82.08 12.35Q82.12 12.11 82.19 10.91Q82.26 9.70 82.26 8.61L82.26 8.61L82.26 7.81Q82.26 7.63 82.27 7.12Q82.28 6.61 82.28 6.30L82.28 6.30Q82.28 5.24 82.19 4.63L82.19 4.63Q82.15 4.28 81.82 4.09Q81.49 3.89 81.14 3.89L81.14 3.89Q81.00 3.89 80.93 3.80Q80.85 3.71 80.85 3.65ZM99.40 12.68L99.40 12.68Q99.40 12.61 99.44 12.54Q99.48 12.47 99.53 12.42Q99.58 12.38 99.68 12.29Q99.78 12.19 99.83 12.14L99.83 12.14Q99.88 12.10 99.95 12.00Q100.02 11.90 100.07 11.84Q100.13 11.79 100.22 11.74Q100.31 11.69 100.42 11.69L100.42 11.69Q100.49 11.69 100.70 11.86Q100.91 12.03 101.15 12.46Q101.39 12.89 101.39 13.44L101.39 13.44Q101.39 14.32 100.76 15.04Q100.14 15.76 99.76 15.76L99.76 15.76Q99.55 15.76 99.55 15.58L99.55 15.58Q99.55 15.48 99.69 15.36Q99.82 15.23 99.99 15.10Q100.16 14.97 100.29 14.71Q100.42 14.45 100.42 14.11L100.42 14.11Q100.42 13.83 100.30 13.62Q100.17 13.40 100.06 13.31Q99.96 13.22 99.64 12.98L99.64 12.98Q99.46 12.85 99.43 12.82Q99.40 12.78 99.40 12.68ZM119.41 3.65L119.41 3.65Q119.41 3.46 119.80 3.46L119.80 3.46Q119.85 3.46 119.98 3.47Q120.11 3.49 120.18 3.49L120.18 3.49Q120.22 3.49 121.49 3.52Q122.77 3.56 123.59 3.56L123.59 3.56Q123.89 3.56 125.04 3.53Q126.20 3.50 126.39 3.50L126.39 3.50Q126.66 3.50 126.66 3.82L126.66 3.82Q126.66 3.91 126.57 4.38Q126.49 4.84 126.49 5.25L126.49 5.25Q126.49 5.38 126.42 5.47Q126.35 5.56 126.27 5.56L126.27 5.56Q126.06 5.56 126.06 5.26L126.06 5.26Q126.06 4.89 125.82 4.58Q125.58 4.27 125.23 4.26L125.23 4.26Q123.97 4.16 123.30 4.16L123.30 4.16L122.93 4.16Q122.21 4.16 122.09 4.26Q121.97 4.37 121.94 5.01L121.94 5.01Q121.88 6.02 121.88 7.35L121.88 7.35Q121.88 8.05 122.15 8.06L122.15 8.06L122.50 8.06L123.09 8.06L123.52 8.06Q124.36 8.06 124.64 8.01Q124.92 7.95 125.15 7.80L125.15 7.80Q125.41 7.62 125.47 7.28L125.47 7.28Q125.51 7.04 125.66 7.04L125.66 7.04Q125.79 7.04 125.82 7.08Q125.85 7.13 125.85 7.27L125.85 7.27Q125.85 7.36 125.79 7.91Q125.73 8.46 125.73 8.74L125.73 8.74Q125.73 9.00 125.75 9.24Q125.78 9.48 125.78 9.59L125.78 9.59Q125.78 9.94 125.68 9.94L125.68 9.94Q125.47 9.94 125.37 9.60L125.37 9.60Q125.17 9.02 125.02 8.92L125.02 8.92Q124.73 8.72 123.68 8.72L123.68 8.72Q123.26 8.72 123.00 8.72Q122.74 8.72 122.66 8.71Q122.58 8.71 122.53 8.71Q122.49 8.71 122.44 8.71L122.44 8.71Q121.87 8.71 121.87 8.97L121.87 8.97Q121.87 9.38 121.86 9.99Q121.84 10.60 121.84 10.99L121.84 10.99L121.84 11.55Q121.84 12.56 122.18 12.66L122.18 12.66Q122.53 12.77 122.78 12.77L122.78 12.77Q123.83 12.77 124.62 12.67Q125.41 12.57 125.81 12.42Q126.21 12.28 126.48 12.10Q126.74 11.93 126.82 11.78Q126.90 11.63 126.97 11.54Q127.05 11.44 127.13 11.44L127.13 11.44Q127.30 11.44 127.30 11.68L127.30 11.68Q127.30 12.28 126.70 12.89Q126.10 13.51 125.65 13.51L125.65 13.51Q124.64 13.51 123.37 13.44Q122.11 13.37 121.80 13.37L121.80 13.37Q121.41 13.37 120.82 13.43Q120.23 13.50 119.90 13.50L119.90 13.50Q119.60 13.50 119.60 13.36L119.60 13.36Q119.60 13.23 119.60 13.19Q119.60 13.15 119.64 13.12Q119.69 13.09 119.73 13.08Q119.78 13.08 119.92 13.03Q120.05 12.99 120.20 12.92L120.20 12.92Q120.54 12.75 120.64 12.26Q120.75 11.77 120.75 10.21L120.75 10.21L120.75 8.47Q120.75 8.09 120.77 7.29Q120.79 6.50 120.79 6.05L120.79 6.05Q120.79 5.67 120.76 4.77L120.76 4.77Q120.75 4.37 120.41 4.14Q120.08 3.92 119.63 3.91L119.63 3.91Q119.41 3.91 119.41 3.65ZM134.86 3.77L134.86 3.77Q134.86 3.68 134.96 3.60Q135.06 3.53 135.21 3.53L135.21 3.53Q135.30 3.53 135.49 3.54Q135.69 3.54 135.74 3.54L135.74 3.54Q135.95 3.54 136.14 3.53Q136.32 3.51 136.43 3.51L136.43 3.51Q136.56 3.51 136.72 3.59Q136.89 3.67 136.92 3.75L136.92 3.75Q136.95 3.79 137.07 3.94Q137.20 4.09 137.41 4.33Q137.62 4.56 137.79 4.79L137.79 4.79Q139.69 7.27 142.88 10.77L142.88 10.77Q142.97 10.86 143.09 10.99Q143.21 11.12 143.25 11.18Q143.30 11.24 143.36 11.30Q143.42 11.35 143.45 11.38Q143.49 11.40 143.51 11.40L143.51 11.40Q143.65 11.40 143.65 10.53L143.65 10.53L143.65 8.89Q143.65 7.95 143.65 7.31Q143.64 6.66 143.63 6.38Q143.63 6.09 143.63 6.02L143.63 6.02L143.63 5.92Q143.63 5.45 143.56 5.11Q143.50 4.77 143.42 4.59Q143.33 4.41 143.17 4.28Q143.01 4.16 142.90 4.12Q142.79 4.09 142.58 4.05Q142.37 4.00 142.28 3.98L142.28 3.98Q142.00 3.89 142.00 3.74L142.00 3.74Q142.00 3.53 142.27 3.53L142.27 3.53Q142.35 3.53 142.94 3.54Q143.53 3.54 143.60 3.54L143.60 3.54Q143.93 3.54 144.35 3.53Q144.76 3.51 144.86 3.51L144.86 3.51Q145.10 3.51 145.19 3.56Q145.28 3.61 145.28 3.75L145.28 3.75Q145.28 3.81 145.20 3.86Q145.12 3.91 145.04 3.94Q144.96 3.98 144.87 4.00L144.87 4.00L144.79 4.03Q144.33 4.28 144.33 5.61L144.33 5.61L144.33 6.15Q144.33 7.21 144.25 9.83Q144.17 12.46 144.17 13.08L144.17 13.08L144.17 13.36Q144.17 13.68 143.98 13.68L143.98 13.68Q143.85 13.68 143.75 13.58L143.75 13.58Q139.10 8.19 138.20 7.17Q137.30 6.16 137.20 6.16L137.20 6.16Q137.06 6.16 137.06 7.11L137.06 7.11Q137.06 8.44 137.00 9.97Q136.95 11.51 136.95 11.65L136.95 11.65Q136.95 12.28 137.16 12.61Q137.38 12.94 137.63 12.98Q137.89 13.02 138.10 13.07Q138.32 13.12 138.32 13.26L138.32 13.26Q138.32 13.41 138.27 13.45Q138.22 13.50 138.10 13.50L138.10 13.50Q138.00 13.50 137.66 13.48Q137.31 13.47 136.60 13.47L136.60 13.47Q136.47 13.47 136.08 13.48Q135.69 13.50 135.41 13.50L135.41 13.50Q135.10 13.50 135.10 13.27L135.10 13.27Q135.10 13.15 135.28 13.11Q135.46 13.08 135.73 12.89Q136.00 12.71 136.14 12.21L136.14 12.21Q136.22 11.89 136.35 9.60Q136.47 7.32 136.47 6.45L136.47 6.45Q136.47 5.25 136.14 4.65Q135.80 4.06 135.04 3.98L135.04 3.98Q134.86 3.96 134.86 3.77ZM153.37 8.83L153.37 8.83Q153.37 7.31 153.98 6.09Q154.59 4.87 155.85 4.12Q157.11 3.37 158.84 3.37L158.84 3.37Q159.52 3.37 160.10 3.48Q160.69 3.58 161.07 3.72Q161.45 3.86 161.73 4.01Q162.01 4.16 162.16 4.26Q162.30 4.37 162.33 4.37L162.33 4.37Q162.37 4.37 162.52 4.26Q162.67 4.16 162.72 4.16L162.72 4.16Q162.93 4.16 162.93 4.44L162.93 4.44Q162.95 4.84 163.00 5.29Q163.04 5.74 163.09 6.03Q163.13 6.33 163.13 6.38L163.13 6.38Q163.13 6.62 162.96 6.62Q162.79 6.62 162.72 6.45L162.72 6.45Q162.23 5.39 161.08 4.65Q159.94 3.92 158.72 3.92L158.72 3.92Q156.97 3.92 155.83 5.02Q154.69 6.12 154.69 8.06L154.69 8.06Q154.69 9.35 155.16 10.49Q155.64 11.62 156.61 12.36Q157.58 13.10 158.84 13.10L158.84 13.10Q159.92 13.10 160.80 12.61Q161.67 12.12 161.77 11.49L161.77 11.49Q161.81 11.16 161.81 9.73L161.81 9.73Q161.81 9.18 161.57 8.95L161.57 8.95Q161.41 8.78 160.96 8.72L160.96 8.72Q160.54 8.68 160.47 8.55L160.47 8.55Q160.44 8.50 160.44 8.41L160.44 8.41Q160.44 8.26 160.69 8.26L160.69 8.26Q160.87 8.26 161.48 8.29Q162.08 8.33 162.25 8.33L162.25 8.33Q162.53 8.33 162.85 8.32Q163.17 8.32 163.37 8.32L163.37 8.32L163.58 8.32Q163.80 8.32 163.80 8.44L163.80 8.44Q163.80 8.54 163.44 8.69Q163.09 8.85 163.04 9.09L163.04 9.09Q162.95 9.69 162.95 10.65L162.95 10.65Q162.95 11.07 162.96 11.40Q162.97 11.72 162.98 11.85Q162.99 11.98 163.00 12.08Q163.02 12.18 163.02 12.22L163.02 12.22Q163.02 12.29 162.91 12.33Q162.81 12.36 162.57 12.42Q162.33 12.49 162.13 12.60L162.13 12.60L162.04 12.66Q161.94 12.73 161.84 12.78Q161.74 12.84 161.58 12.92Q161.42 13.01 161.25 13.09Q161.08 13.17 160.87 13.26Q160.66 13.36 160.44 13.43Q160.22 13.50 159.98 13.55Q159.74 13.61 159.48 13.64Q159.22 13.68 158.97 13.68L158.97 13.68Q157.44 13.68 156.32 13.26Q155.19 12.85 154.57 12.14Q153.96 11.44 153.66 10.61Q153.37 9.79 153.37 8.83ZM171.49 13.33L171.49 13.33Q171.49 13.13 171.70 13.06L171.70 13.06Q172.14 12.89 172.48 12.31Q172.82 11.73 174.15 8.83L174.15 8.83Q175.52 5.87 176.57 3.63L176.57 3.63Q176.67 3.42 176.74 3.36Q176.82 3.30 176.99 3.30L176.99 3.30Q177.11 3.30 177.16 3.36Q177.20 3.42 177.34 3.82L177.34 3.82Q177.42 4.06 177.48 4.23Q177.55 4.40 177.69 4.77Q177.83 5.15 178.00 5.56L178.00 5.56Q178.44 6.66 179.54 9.22Q180.64 11.77 180.74 11.98L180.74 11.98Q180.98 12.46 181.27 12.71Q181.57 12.95 181.78 12.97Q182 12.99 182.15 13.04Q182.29 13.09 182.29 13.26L182.29 13.26Q182.29 13.47 181.92 13.47L181.92 13.47Q181.76 13.47 181.31 13.43Q180.87 13.38 180.66 13.38L180.66 13.38Q180.39 13.38 179.97 13.41Q179.55 13.44 179.35 13.44L179.35 13.44Q178.92 13.44 178.80 13.40Q178.68 13.37 178.68 13.24L178.68 13.24Q178.68 13.15 178.79 13.08Q178.91 13.02 179.03 13.00Q179.16 12.98 179.27 12.87Q179.38 12.77 179.38 12.59L179.38 12.59Q179.38 12.28 179.03 11.33Q178.68 10.37 178.44 9.93L178.44 9.93Q178.32 9.69 177.87 9.69L177.87 9.69Q177.80 9.69 177.25 9.70Q176.71 9.72 176.18 9.72L176.18 9.72L175.43 9.72Q174.80 9.72 174.64 9.79Q174.48 9.86 174.36 10.12L174.36 10.12Q174.27 10.30 174.08 10.70Q173.88 11.10 173.81 11.26Q173.74 11.41 173.63 11.65Q173.53 11.90 173.49 12.05Q173.46 12.19 173.46 12.31L173.46 12.31Q173.46 12.63 173.62 12.80Q173.78 12.96 173.98 12.98Q174.17 13.01 174.33 13.06Q174.50 13.12 174.50 13.26L174.50 13.26Q174.50 13.36 174.45 13.40Q174.41 13.45 174.26 13.45L174.26 13.45Q174.17 13.45 173.77 13.45Q173.38 13.44 173.10 13.44L173.10 13.44Q172.79 13.44 172.40 13.47Q172.02 13.50 171.89 13.50L171.89 13.50Q171.49 13.50 171.49 13.33ZM175 8.71L175 8.71Q175 8.89 175.13 8.93Q175.25 8.97 175.71 8.97L175.71 8.97L176.15 8.97L177.48 8.96Q178.02 8.96 178.02 8.74L178.02 8.74Q178.02 8.55 177.34 7.01Q176.65 5.46 176.47 5.46L176.47 5.46Q176.34 5.46 175.67 7.01Q175 8.55 175 8.71ZM189.50 8.83L189.50 8.83Q189.50 7.31 190.11 6.09Q190.72 4.87 191.98 4.12Q193.24 3.37 194.98 3.37L194.98 3.37Q195.65 3.37 196.24 3.48Q196.83 3.58 197.20 3.72Q197.58 3.86 197.86 4.01Q198.14 4.16 198.29 4.26Q198.44 4.37 198.46 4.37L198.46 4.37Q198.51 4.37 198.65 4.26Q198.80 4.16 198.86 4.16L198.86 4.16Q199.07 4.16 199.07 4.44L199.07 4.44Q199.08 4.84 199.13 5.29Q199.18 5.74 199.22 6.03Q199.26 6.33 199.26 6.38L199.26 6.38Q199.26 6.62 199.09 6.62Q198.93 6.62 198.86 6.45L198.86 6.45Q198.37 5.39 197.22 4.65Q196.07 3.92 194.85 3.92L194.85 3.92Q193.10 3.92 191.96 5.02Q190.82 6.12 190.82 8.06L190.82 8.06Q190.82 9.35 191.30 10.49Q191.77 11.62 192.74 12.36Q193.72 13.10 194.98 13.10L194.98 13.10Q196.06 13.10 196.93 12.61Q197.81 12.12 197.90 11.49L197.90 11.49Q197.95 11.16 197.95 9.73L197.95 9.73Q197.95 9.18 197.71 8.95L197.71 8.95Q197.54 8.78 197.09 8.72L197.09 8.72Q196.67 8.68 196.60 8.55L196.60 8.55Q196.57 8.50 196.57 8.41L196.57 8.41Q196.57 8.26 196.83 8.26L196.83 8.26Q197.01 8.26 197.61 8.29Q198.21 8.33 198.38 8.33L198.38 8.33Q198.66 8.33 198.98 8.32Q199.30 8.32 199.50 8.32L199.50 8.32L199.71 8.32Q199.93 8.32 199.93 8.44L199.93 8.44Q199.93 8.54 199.58 8.69Q199.22 8.85 199.18 9.09L199.18 9.09Q199.08 9.69 199.08 10.65L199.08 10.65Q199.08 11.07 199.09 11.40Q199.11 11.72 199.11 11.85Q199.12 11.98 199.14 12.08Q199.15 12.18 199.15 12.22L199.15 12.22Q199.15 12.29 199.04 12.33Q198.94 12.36 198.70 12.42Q198.46 12.49 198.27 12.60L198.27 12.60L198.17 12.66Q198.07 12.73 197.97 12.78Q197.88 12.84 197.71 12.92Q197.55 13.01 197.39 13.09Q197.22 13.17 197.01 13.26Q196.80 13.36 196.57 13.43Q196.35 13.50 196.11 13.55Q195.87 13.61 195.61 13.64Q195.36 13.68 195.10 13.68L195.10 13.68Q193.58 13.68 192.45 13.26Q191.32 12.85 190.71 12.14Q190.09 11.44 189.80 10.61Q189.50 9.79 189.50 8.83ZM207.62 3.65L207.62 3.65Q207.62 3.46 208.01 3.46L208.01 3.46Q208.07 3.46 208.19 3.47Q208.32 3.49 208.39 3.49L208.39 3.49Q208.43 3.49 209.71 3.52Q210.98 3.56 211.81 3.56L211.81 3.56Q212.10 3.56 213.25 3.53Q214.41 3.50 214.61 3.50L214.61 3.50Q214.87 3.50 214.87 3.82L214.87 3.82Q214.87 3.91 214.79 4.38Q214.70 4.84 214.70 5.25L214.70 5.25Q214.70 5.38 214.63 5.47Q214.56 5.56 214.48 5.56L214.48 5.56Q214.27 5.56 214.27 5.26L214.27 5.26Q214.27 4.89 214.03 4.58Q213.79 4.27 213.44 4.26L213.44 4.26Q212.18 4.16 211.51 4.16L211.51 4.16L211.15 4.16Q210.42 4.16 210.30 4.26Q210.18 4.37 210.15 5.01L210.15 5.01Q210.10 6.02 210.10 7.35L210.10 7.35Q210.10 8.05 210.36 8.06L210.36 8.06L210.71 8.06L211.30 8.06L211.74 8.06Q212.58 8.06 212.86 8.01Q213.14 7.95 213.36 7.80L213.36 7.80Q213.63 7.62 213.68 7.28L213.68 7.28Q213.72 7.04 213.88 7.04L213.88 7.04Q214.00 7.04 214.03 7.08Q214.06 7.13 214.06 7.27L214.06 7.27Q214.06 7.36 214.00 7.91Q213.95 8.46 213.95 8.74L213.95 8.74Q213.95 9.00 213.97 9.24Q213.99 9.48 213.99 9.59L213.99 9.59Q213.99 9.94 213.89 9.94L213.89 9.94Q213.68 9.94 213.58 9.60L213.58 9.60Q213.39 9.02 213.23 8.92L213.23 8.92Q212.94 8.72 211.89 8.72L211.89 8.72Q211.47 8.72 211.21 8.72Q210.95 8.72 210.87 8.71Q210.80 8.71 210.75 8.71Q210.70 8.71 210.66 8.71L210.66 8.71Q210.08 8.71 210.08 8.97L210.08 8.97Q210.08 9.38 210.07 9.99Q210.06 10.60 210.06 10.99L210.06 10.99L210.06 11.55Q210.06 12.56 210.39 12.66L210.39 12.66Q210.74 12.77 210.99 12.77L210.99 12.77Q212.04 12.77 212.83 12.67Q213.63 12.57 214.02 12.42Q214.42 12.28 214.69 12.10Q214.96 11.93 215.03 11.78Q215.11 11.63 215.19 11.54Q215.26 11.44 215.35 11.44L215.35 11.44Q215.52 11.44 215.52 11.68L215.52 11.68Q215.52 12.28 214.91 12.89Q214.31 13.51 213.86 13.51L213.86 13.51Q212.86 13.51 211.59 13.44Q210.32 13.37 210.01 13.37L210.01 13.37Q209.62 13.37 209.03 13.43Q208.45 13.50 208.11 13.50L208.11 13.50Q207.82 13.50 207.82 13.36L207.82 13.36Q207.82 13.23 207.82 13.19Q207.82 13.15 207.86 13.12Q207.90 13.09 207.95 13.08Q208.00 13.08 208.13 13.03Q208.26 12.99 208.42 12.92L208.42 12.92Q208.75 12.75 208.86 12.26Q208.96 11.77 208.96 10.21L208.96 10.21L208.96 8.47Q208.96 8.09 208.98 7.29Q209.01 6.50 209.01 6.05L209.01 6.05Q209.01 5.67 208.98 4.77L208.98 4.77Q208.96 4.37 208.63 4.14Q208.29 3.92 207.84 3.91L207.84 3.91Q207.62 3.91 207.62 3.65ZM223.55 12.68L223.55 12.68Q223.55 12.61 223.59 12.54Q223.64 12.47 223.68 12.42Q223.73 12.38 223.83 12.29Q223.93 12.19 223.99 12.14L223.99 12.14Q224.03 12.10 224.10 12.00Q224.17 11.90 224.22 11.84Q224.28 11.79 224.37 11.74Q224.46 11.69 224.57 11.69L224.57 11.69Q224.64 11.69 224.85 11.86Q225.06 12.03 225.30 12.46Q225.54 12.89 225.54 13.44L225.54 13.44Q225.54 14.32 224.92 15.04Q224.29 15.76 223.92 15.76L223.92 15.76Q223.71 15.76 223.71 15.58L223.71 15.58Q223.71 15.48 223.84 15.36Q223.97 15.23 224.14 15.10Q224.31 14.97 224.44 14.71Q224.57 14.45 224.57 14.11L224.57 14.11Q224.57 13.83 224.45 13.62Q224.32 13.40 224.22 13.31Q224.11 13.22 223.79 12.98L223.79 12.98Q223.61 12.85 223.58 12.82Q223.55 12.78 223.55 12.68ZM243.56 3.65L243.56 3.65Q243.56 3.46 243.95 3.46L243.95 3.46Q244.01 3.46 244.13 3.47Q244.26 3.49 244.33 3.49L244.33 3.49Q244.37 3.49 245.64 3.52Q246.92 3.56 247.74 3.56L247.74 3.56Q248.04 3.56 249.19 3.53Q250.35 3.50 250.54 3.50L250.54 3.50Q250.81 3.50 250.81 3.82L250.81 3.82Q250.81 3.91 250.73 4.38Q250.64 4.84 250.64 5.25L250.64 5.25Q250.64 5.38 250.57 5.47Q250.50 5.56 250.42 5.56L250.42 5.56Q250.21 5.56 250.21 5.26L250.21 5.26Q250.21 4.89 249.97 4.58Q249.73 4.27 249.38 4.26L249.38 4.26Q248.12 4.16 247.45 4.16L247.45 4.16L247.09 4.16Q246.36 4.16 246.24 4.26Q246.12 4.37 246.09 5.01L246.09 5.01Q246.04 6.02 246.04 7.35L246.04 7.35Q246.04 8.05 246.30 8.06L246.30 8.06L246.65 8.06L247.24 8.06L247.67 8.06Q248.51 8.06 248.79 8.01Q249.07 7.95 249.30 7.80L249.30 7.80Q249.56 7.62 249.62 7.28L249.62 7.28Q249.66 7.04 249.82 7.04L249.82 7.04Q249.94 7.04 249.97 7.08Q250.00 7.13 250.00 7.27L250.00 7.27Q250.00 7.36 249.94 7.91Q249.89 8.46 249.89 8.74L249.89 8.74Q249.89 9.00 249.91 9.24Q249.93 9.48 249.93 9.59L249.93 9.59Q249.93 9.94 249.83 9.94L249.83 9.94Q249.62 9.94 249.52 9.60L249.52 9.60Q249.33 9.02 249.17 8.92L249.17 8.92Q248.88 8.72 247.83 8.72L247.83 8.72Q247.41 8.72 247.15 8.72Q246.89 8.72 246.81 8.71Q246.74 8.71 246.69 8.71Q246.64 8.71 246.60 8.71L246.60 8.71Q246.02 8.71 246.02 8.97L246.02 8.97Q246.02 9.38 246.01 9.99Q245.99 10.60 245.99 10.99L245.99 10.99L245.99 11.55Q245.99 12.56 246.33 12.66L246.33 12.66Q246.68 12.77 246.93 12.77L246.93 12.77Q247.98 12.77 248.77 12.67Q249.56 12.57 249.96 12.42Q250.36 12.28 250.63 12.10Q250.89 11.93 250.97 11.78Q251.05 11.63 251.12 11.54Q251.20 11.44 251.29 11.44L251.29 11.44Q251.45 11.44 251.45 11.68L251.45 11.68Q251.45 12.28 250.85 12.89Q250.25 13.51 249.80 13.51L249.80 13.51Q248.79 13.51 247.53 13.44Q246.26 13.37 245.95 13.37L245.95 13.37Q245.56 13.37 244.97 13.43Q244.38 13.50 244.05 13.50L244.05 13.50Q243.75 13.50 243.75 13.36L243.75 13.36Q243.75 13.23 243.75 13.19Q243.75 13.15 243.80 13.12Q243.84 13.09 243.89 13.08Q243.94 13.08 244.07 13.03Q244.20 12.99 244.36 12.92L244.36 12.92Q244.69 12.75 244.80 12.26Q244.90 11.77 244.90 10.21L244.90 10.21L244.90 8.47Q244.90 8.09 244.92 7.29Q244.94 6.50 244.94 6.05L244.94 6.05Q244.94 5.67 244.92 4.77L244.92 4.77Q244.90 4.37 244.57 4.14Q244.23 3.92 243.78 3.91L243.78 3.91Q243.56 3.91 243.56 3.65ZM259.01 3.63L259.01 3.63Q259.01 3.51 259.11 3.48Q259.21 3.44 259.60 3.44L259.60 3.44Q259.87 3.44 260.13 3.47Q260.40 3.50 260.85 3.50L260.85 3.50Q260.93 3.50 261.60 3.49Q262.26 3.47 262.32 3.47L262.32 3.47Q262.63 3.47 262.63 3.60Q262.63 3.72 262.53 3.78Q262.43 3.84 262.31 3.84Q262.19 3.85 262.09 3.92Q262.00 3.99 262.00 4.14L262.00 4.14Q262.00 4.41 262.75 5.50L262.75 5.50Q263.89 7.22 264.03 7.36L264.03 7.36Q264.11 7.45 264.15 7.45L264.15 7.45Q264.26 7.45 264.47 7.14L264.47 7.14Q264.60 6.96 264.88 6.56Q265.16 6.16 265.38 5.84Q265.59 5.53 265.82 5.19Q266.06 4.84 266.19 4.61Q266.32 4.37 266.32 4.27L266.32 4.27Q266.32 4.05 266.20 3.94Q266.08 3.84 265.95 3.82Q265.82 3.81 265.70 3.76Q265.58 3.71 265.58 3.58L265.58 3.58Q265.58 3.44 265.79 3.44L265.79 3.44Q266.10 3.44 266.39 3.47Q266.69 3.50 266.92 3.50L266.92 3.50Q267.71 3.50 267.95 3.47Q268.20 3.44 268.24 3.44L268.24 3.44Q268.46 3.44 268.46 3.58Q268.46 3.72 268.34 3.77Q268.21 3.82 267.93 3.92Q267.65 4.02 267.41 4.19L267.41 4.19Q267.15 4.37 266.67 5.01L266.67 5.01Q264.50 7.92 264.50 7.95L264.50 7.95Q264.50 8.05 265.01 8.76L265.01 8.76Q265.66 9.70 266.27 10.57L266.27 10.57Q267.55 12.45 268.09 12.88L268.09 12.88Q268.13 12.92 268.36 12.96Q268.59 13.01 268.78 13.08Q268.97 13.15 268.97 13.26L268.97 13.26Q268.97 13.33 268.95 13.36Q268.93 13.40 268.82 13.43Q268.72 13.45 268.52 13.45L268.52 13.45Q268.25 13.45 267.66 13.40Q267.06 13.36 267.02 13.36L267.02 13.36Q266.62 13.36 266.30 13.38Q265.99 13.40 265.82 13.42Q265.65 13.44 265.59 13.44L265.59 13.44Q265.41 13.44 265.41 13.26L265.41 13.26Q265.41 13.09 265.77 13.01Q266.13 12.92 266.13 12.66L266.13 12.66Q266.13 12.56 266.03 12.38Q265.94 12.19 265.73 11.86Q265.52 11.52 265.31 11.21Q265.09 10.89 264.68 10.29Q264.26 9.69 263.94 9.20L263.94 9.20Q263.80 8.96 263.70 8.96L263.70 8.96Q263.68 8.96 263.41 9.39L263.41 9.39Q263.10 9.88 262.52 10.66Q261.94 11.44 261.65 11.91Q261.35 12.39 261.35 12.67L261.35 12.67Q261.35 13.05 262.11 13.05L262.11 13.05Q262.28 13.05 262.28 13.29L262.28 13.29Q262.28 13.44 261.84 13.44L261.84 13.44Q261.70 13.44 261.18 13.42Q260.65 13.40 260.61 13.40L260.61 13.40Q260.48 13.40 260.06 13.43Q259.64 13.45 259.49 13.45Q259.34 13.45 259.27 13.44Q259.20 13.43 259.14 13.37Q259.08 13.31 259.08 13.19L259.08 13.19Q259.08 13.09 259.17 13.05Q259.25 13.02 259.37 13.01Q259.49 13.01 259.69 12.94Q259.90 12.87 260.08 12.73L260.08 12.73Q260.22 12.61 260.38 12.46Q260.54 12.31 260.71 12.09Q260.89 11.87 261.03 11.70Q261.17 11.54 261.38 11.25Q261.59 10.96 261.69 10.81Q261.80 10.67 262.03 10.34Q262.26 10.01 262.35 9.90L262.35 9.90Q262.56 9.60 262.85 9.22Q263.14 8.83 263.26 8.67Q263.38 8.50 263.38 8.46Q263.38 8.41 263.33 8.32Q263.27 8.23 263.12 8.02Q262.96 7.80 262.77 7.54Q262.58 7.28 262.22 6.78Q261.86 6.27 261.48 5.73L261.48 5.73Q260.36 4.07 259.57 3.91L259.57 3.91Q259.55 3.91 259.42 3.88Q259.29 3.86 259.22 3.84Q259.15 3.82 259.08 3.77Q259.01 3.71 259.01 3.63ZM276.53 3.72L276.53 3.72Q276.53 3.50 276.85 3.50L276.85 3.50Q276.89 3.50 277.00 3.49Q277.12 3.49 277.37 3.49L277.37 3.49Q277.44 3.49 277.75 3.51Q278.07 3.53 278.21 3.53L278.21 3.53Q278.52 3.53 279.40 3.51Q280.28 3.49 280.52 3.49L280.52 3.49Q281.83 3.49 282.79 4.15Q283.74 4.82 283.74 6.06L283.74 6.06Q283.74 6.75 283.49 7.29Q283.23 7.83 282.88 8.13Q282.52 8.44 282.08 8.64Q281.64 8.85 281.29 8.91Q280.95 8.97 280.69 8.97L280.69 8.97Q280.24 8.97 279.78 8.87Q279.31 8.76 279.31 8.65L279.31 8.65Q279.31 8.44 279.50 8.44L279.50 8.44Q279.57 8.44 279.78 8.50Q280.00 8.55 280.21 8.55L280.21 8.55Q280.53 8.55 280.90 8.46Q281.26 8.37 281.65 8.17Q282.04 7.97 282.30 7.55Q282.55 7.14 282.55 6.59L282.55 6.59Q282.55 5.66 281.79 4.85Q281.04 4.05 279.71 4.05L279.71 4.05Q279.27 4.05 279.12 4.30Q278.96 4.56 278.96 5.47L278.96 5.47Q278.96 8.39 278.95 8.80Q278.94 9.21 278.94 11.26L278.94 11.26Q278.94 12.49 279.51 12.87L279.51 12.87Q279.66 12.96 279.89 12.99Q280.13 13.02 280.28 13.01Q280.43 13.01 280.55 13.07Q280.67 13.13 280.67 13.30L280.67 13.30Q280.67 13.54 280.35 13.54Q280.03 13.54 279.22 13.50Q278.40 13.47 278.35 13.47L278.35 13.47Q278.21 13.47 277.79 13.50Q277.38 13.52 277.05 13.52L277.05 13.52Q276.61 13.52 276.61 13.37L276.61 13.37Q276.61 13.29 276.63 13.23Q276.65 13.17 276.67 13.14Q276.70 13.10 276.77 13.08Q276.84 13.05 276.86 13.03Q276.89 13.02 277.00 13.00Q277.10 12.98 277.14 12.96L277.14 12.96Q277.17 12.95 277.23 12.94Q277.28 12.94 277.30 12.93Q277.33 12.92 277.37 12.89Q277.42 12.85 277.45 12.79Q277.48 12.73 277.53 12.62Q277.58 12.52 277.63 12.35L277.63 12.35Q277.73 12.08 277.79 10.25Q277.84 8.41 277.84 7.41L277.84 7.41Q277.84 6.54 277.84 5.80Q277.83 5.07 277.83 5.03L277.83 5.03Q277.83 4.65 277.59 4.28Q277.35 3.91 276.81 3.91L276.81 3.91Q276.53 3.91 276.53 3.72ZM290.14 13.33L290.14 13.33Q290.14 13.13 290.35 13.06L290.35 13.06Q290.79 12.89 291.13 12.31Q291.47 11.73 292.80 8.83L292.80 8.83Q294.17 5.87 295.22 3.63L295.22 3.63Q295.32 3.42 295.39 3.36Q295.47 3.30 295.64 3.30L295.64 3.30Q295.76 3.30 295.81 3.36Q295.85 3.42 295.99 3.82L295.99 3.82Q296.07 4.06 296.13 4.23Q296.20 4.40 296.34 4.77Q296.48 5.15 296.65 5.56L296.65 5.56Q297.09 6.66 298.19 9.22Q299.29 11.77 299.39 11.98L299.39 11.98Q299.63 12.46 299.92 12.71Q300.22 12.95 300.43 12.97Q300.65 12.99 300.80 13.04Q300.94 13.09 300.94 13.26L300.94 13.26Q300.94 13.47 300.57 13.47L300.57 13.47Q300.41 13.47 299.96 13.43Q299.52 13.38 299.31 13.38L299.31 13.38Q299.04 13.38 298.62 13.41Q298.20 13.44 298.00 13.44L298.00 13.44Q297.57 13.44 297.45 13.40Q297.33 13.37 297.33 13.24L297.33 13.24Q297.33 13.15 297.44 13.08Q297.56 13.02 297.68 13.00Q297.81 12.98 297.92 12.87Q298.03 12.77 298.03 12.59L298.03 12.59Q298.03 12.28 297.68 11.33Q297.33 10.37 297.09 9.93L297.09 9.93Q296.97 9.69 296.52 9.69L296.52 9.69Q296.45 9.69 295.90 9.70Q295.36 9.72 294.83 9.72L294.83 9.72L294.08 9.72Q293.45 9.72 293.29 9.79Q293.13 9.86 293.01 10.12L293.01 10.12Q292.92 10.30 292.73 10.70Q292.53 11.10 292.46 11.26Q292.39 11.41 292.28 11.65Q292.18 11.90 292.14 12.05Q292.11 12.19 292.11 12.31L292.11 12.31Q292.11 12.63 292.27 12.80Q292.43 12.96 292.63 12.98Q292.82 13.01 292.98 13.06Q293.15 13.12 293.15 13.26L293.15 13.26Q293.15 13.36 293.10 13.40Q293.06 13.45 292.91 13.45L292.91 13.45Q292.82 13.45 292.42 13.45Q292.03 13.44 291.75 13.44L291.75 13.44Q291.44 13.44 291.05 13.47Q290.67 13.50 290.54 13.50L290.54 13.50Q290.14 13.50 290.14 13.33ZM293.65 8.71L293.65 8.71Q293.65 8.89 293.78 8.93Q293.90 8.97 294.36 8.97L294.36 8.97L294.80 8.97L296.13 8.96Q296.67 8.96 296.67 8.74L296.67 8.74Q296.67 8.55 295.99 7.01Q295.30 5.46 295.12 5.46L295.12 5.46Q294.99 5.46 294.32 7.01Q293.65 8.55 293.65 8.71ZM308.50 3.77L308.50 3.77Q308.50 3.68 308.60 3.60Q308.70 3.53 308.85 3.53L308.85 3.53Q308.94 3.53 309.13 3.54Q309.33 3.54 309.39 3.54L309.39 3.54Q309.60 3.54 309.78 3.53Q309.96 3.51 310.07 3.51L310.07 3.51Q310.20 3.51 310.37 3.59Q310.53 3.67 310.56 3.75L310.56 3.75Q310.59 3.79 310.72 3.94Q310.84 4.09 311.05 4.33Q311.26 4.56 311.43 4.79L311.43 4.79Q313.33 7.27 316.53 10.77L316.53 10.77Q316.61 10.86 316.73 10.99Q316.85 11.12 316.90 11.18Q316.95 11.24 317.00 11.30Q317.06 11.35 317.09 11.38Q317.13 11.40 317.16 11.40L317.16 11.40Q317.30 11.40 317.30 10.53L317.30 10.53L317.30 8.89Q317.30 7.95 317.29 7.31Q317.28 6.66 317.27 6.38Q317.27 6.09 317.27 6.02L317.27 6.02L317.27 5.92Q317.27 5.45 317.20 5.11Q317.14 4.77 317.06 4.59Q316.97 4.41 316.81 4.28Q316.65 4.16 316.54 4.12Q316.43 4.09 316.22 4.05Q316.01 4.00 315.92 3.98L315.92 3.98Q315.64 3.89 315.64 3.74L315.64 3.74Q315.64 3.53 315.91 3.53L315.91 3.53Q315.99 3.53 316.58 3.54Q317.17 3.54 317.24 3.54L317.24 3.54Q317.58 3.54 317.99 3.53Q318.40 3.51 318.50 3.51L318.50 3.51Q318.74 3.51 318.83 3.56Q318.92 3.61 318.92 3.75L318.92 3.75Q318.92 3.81 318.84 3.86Q318.77 3.91 318.68 3.94Q318.60 3.98 318.51 4.00L318.51 4.00L318.43 4.03Q317.97 4.28 317.97 5.61L317.97 5.61L317.97 6.15Q317.97 7.21 317.89 9.83Q317.81 12.46 317.81 13.08L317.81 13.08L317.81 13.36Q317.81 13.68 317.62 13.68L317.62 13.68Q317.49 13.68 317.39 13.58L317.39 13.58Q312.75 8.19 311.84 7.17Q310.94 6.16 310.84 6.16L310.84 6.16Q310.70 6.16 310.70 7.11L310.70 7.11Q310.70 8.44 310.65 9.97Q310.59 11.51 310.59 11.65L310.59 11.65Q310.59 12.28 310.81 12.61Q311.02 12.94 311.28 12.98Q311.53 13.02 311.74 13.07Q311.96 13.12 311.96 13.26L311.96 13.26Q311.96 13.41 311.91 13.45Q311.86 13.50 311.74 13.50L311.74 13.50Q311.64 13.50 311.30 13.48Q310.95 13.47 310.24 13.47L310.24 13.47Q310.11 13.47 309.72 13.48Q309.33 13.50 309.05 13.50L309.05 13.50Q308.74 13.50 308.74 13.27L308.74 13.27Q308.74 13.15 308.92 13.11Q309.11 13.08 309.37 12.89Q309.64 12.71 309.78 12.21L309.78 12.21Q309.86 11.89 309.99 9.60Q310.11 7.32 310.11 6.45L310.11 6.45Q310.11 5.25 309.78 4.65Q309.44 4.06 308.69 3.98L308.69 3.98Q308.50 3.96 308.50 3.77ZM326.68 3.64L326.68 3.64Q326.68 3.51 326.79 3.49Q326.91 3.47 327.39 3.47L327.39 3.47L328.61 3.47Q328.96 3.47 329.90 3.44Q330.83 3.42 331.34 3.42L331.34 3.42Q332.30 3.42 333.27 3.71Q334.24 4.00 335.05 4.56Q335.86 5.11 336.36 6.00Q336.87 6.89 336.87 7.98L336.87 7.98Q336.87 8.96 336.73 9.68Q336.60 10.40 336.29 10.93Q335.99 11.45 335.68 11.78Q335.37 12.11 334.84 12.56L334.84 12.56Q334.42 12.89 333.62 13.19Q332.82 13.48 331.98 13.48L331.98 13.48Q331.90 13.48 330.55 13.45Q329.21 13.41 328.62 13.41L328.62 13.41Q328.13 13.41 327.71 13.45Q327.29 13.48 327.22 13.48L327.22 13.48Q326.89 13.48 326.89 13.30L326.89 13.30Q326.89 13.19 326.93 13.14Q326.98 13.09 327.14 13.05Q327.31 13.01 327.38 12.98L327.38 12.98Q327.60 12.88 327.79 12.61Q327.98 12.33 327.98 12.07L327.98 12.07Q327.98 11.28 327.98 10.07Q327.99 8.85 327.99 8.27L327.99 8.27Q327.99 7.77 327.98 6.70Q327.98 5.63 327.98 4.72L327.98 4.72Q327.98 4.48 327.75 4.23Q327.52 3.99 327.24 3.98L327.24 3.98Q327.04 3.96 326.95 3.95Q326.86 3.93 326.77 3.86Q326.68 3.78 326.68 3.64ZM329.15 11.47L329.15 11.47Q329.15 11.73 329.16 11.90Q329.17 12.07 329.22 12.21Q329.27 12.35 329.29 12.40Q329.32 12.46 329.46 12.53Q329.60 12.60 329.68 12.62Q329.76 12.64 330.01 12.71Q330.26 12.78 330.43 12.82L330.43 12.82Q330.92 12.96 331.45 12.96L331.45 12.96L331.73 12.96Q332.68 12.96 333.35 12.69Q334.03 12.42 334.64 11.83L334.64 11.83Q335.68 10.84 335.68 8.61L335.68 8.61Q335.68 7.49 335.24 6.58Q334.80 5.67 334.08 5.13Q333.37 4.59 332.54 4.30Q331.72 4.02 330.88 4.02L330.88 4.02Q330.50 4.02 330.32 4.02Q330.15 4.02 329.92 4.05Q329.69 4.09 329.61 4.11Q329.53 4.13 329.42 4.25Q329.31 4.37 329.29 4.45Q329.27 4.54 329.23 4.78Q329.20 5.03 329.20 5.21Q329.20 5.39 329.20 5.80L329.20 5.80Q329.20 6.10 329.18 7.24Q329.17 8.39 329.17 8.48L329.17 8.48Q329.17 9.32 329.16 10.30Q329.15 11.28 329.15 11.47Z"></path></g></svg>