<svg data-v-423bf9ae="" xmlns="http://www.w3.org/2000/svg" viewBox="0 0 644.6750699031229 60" class="font"><!----><!----><!----><g data-v-423bf9ae="" id="5e20d0ca-2c9a-4569-8763-f63086d928eb" fill="white" transform="matrix(5.415162492161021,0,0,5.415162492161021,-1.191343686516916,-11.805053879156382)"><path d="M0.22 3.35L7.69 3.35L7.69 4.52L4.63 4.52L4.63 13.05L3.28 13.05L3.28 4.52L0.22 4.52L0.22 3.35ZM7.85 9.42L7.85 9.42Q7.85 8.46 8.13 7.74Q8.41 7.01 8.88 6.54Q9.34 6.06 9.94 5.82Q10.54 5.59 11.17 5.59L11.17 5.59Q12.64 5.59 13.43 6.50Q14.21 7.42 14.21 9.30L14.21 9.30Q14.21 9.38 14.21 9.51Q14.21 9.65 14.20 9.76L14.20 9.76L9.21 9.76Q9.30 10.89 9.87 11.48Q10.44 12.07 11.66 12.07L11.66 12.07Q12.35 12.07 12.82 11.95Q13.29 11.83 13.52 11.72L13.52 11.72L13.71 12.81Q13.47 12.94 12.87 13.08Q12.28 13.22 11.52 13.22L11.52 13.22Q10.57 13.22 9.88 12.93Q9.18 12.64 8.74 12.14Q8.29 11.63 8.07 10.94Q7.85 10.25 7.85 9.42ZM9.24 8.71L12.85 8.71Q12.87 7.83 12.41 7.26Q11.96 6.69 11.16 6.69L11.16 6.69Q10.71 6.69 10.37 6.87Q10.02 7.04 9.79 7.32Q9.55 7.60 9.42 7.97Q9.28 8.33 9.24 8.71L9.24 8.71ZM19.25 13.22L19.25 13.22Q18.37 13.22 17.70 12.94Q17.04 12.66 16.58 12.15Q16.13 11.65 15.90 10.96Q15.68 10.26 15.68 9.42L15.68 9.42Q15.68 8.58 15.93 7.88Q16.17 7.18 16.62 6.67Q17.07 6.16 17.72 5.87Q18.37 5.59 19.17 5.59L19.17 5.59Q19.66 5.59 20.15 5.67Q20.64 5.75 21.08 5.94L21.08 5.94L20.79 7.04Q20.50 6.90 20.11 6.82Q19.73 6.73 19.29 6.73L19.29 6.73Q18.20 6.73 17.62 7.42Q17.04 8.11 17.04 9.42L17.04 9.42Q17.04 10.01 17.17 10.50Q17.30 10.99 17.59 11.34Q17.88 11.69 18.33 11.88Q18.77 12.07 19.42 12.07L19.42 12.07Q19.94 12.07 20.36 11.97Q20.78 11.87 21.01 11.76L21.01 11.76L21.20 12.85Q21.08 12.92 20.87 12.98Q20.66 13.05 20.40 13.10Q20.13 13.15 19.83 13.18Q19.53 13.22 19.25 13.22ZM23.90 13.05L22.60 13.05L22.60 2.41L23.90 2.18L23.90 5.91Q24.26 5.77 24.68 5.69Q25.09 5.61 25.49 5.61L25.49 5.61Q26.36 5.61 26.94 5.86Q27.51 6.10 27.85 6.54Q28.20 6.99 28.34 7.60Q28.48 8.22 28.48 8.96L28.48 8.96L28.48 13.05L27.17 13.05L27.17 9.24Q27.17 8.57 27.08 8.09Q26.99 7.62 26.78 7.32Q26.57 7.03 26.22 6.89Q25.87 6.76 25.35 6.76L25.35 6.76Q25.14 6.76 24.92 6.79Q24.70 6.82 24.49 6.85Q24.29 6.89 24.13 6.93Q23.97 6.97 23.90 7L23.90 7L23.90 13.05ZM38.08 13.26L38.08 13.26Q37.06 13.26 36.22 12.92Q35.38 12.59 34.78 11.94Q34.17 11.30 33.84 10.35Q33.52 9.41 33.52 8.19L33.52 8.19Q33.52 6.97 33.89 6.03Q34.26 5.08 34.89 4.44Q35.52 3.79 36.36 3.46Q37.20 3.12 38.15 3.12L38.15 3.12Q38.75 3.12 39.23 3.21Q39.72 3.29 40.08 3.40Q40.43 3.51 40.66 3.63Q40.88 3.74 40.96 3.79L40.96 3.79L40.57 4.91Q40.45 4.83 40.21 4.73Q39.97 4.63 39.67 4.54Q39.37 4.44 39.01 4.38Q38.65 4.31 38.29 4.31L38.29 4.31Q37.52 4.31 36.90 4.58Q36.29 4.84 35.85 5.35Q35.42 5.85 35.19 6.57Q34.96 7.29 34.96 8.19L34.96 8.19Q34.96 9.06 35.16 9.77Q35.36 10.49 35.77 11.00Q36.18 11.51 36.79 11.79Q37.39 12.07 38.21 12.07L38.21 12.07Q39.14 12.07 39.76 11.87Q40.38 11.68 40.68 11.52L40.68 11.52L41.03 12.64Q40.94 12.71 40.68 12.82Q40.43 12.92 40.05 13.02Q39.68 13.12 39.17 13.19Q38.67 13.26 38.08 13.26ZM48.72 9.41L48.72 9.41Q48.72 10.28 48.47 10.98Q48.22 11.68 47.76 12.18Q47.31 12.68 46.68 12.96Q46.05 13.23 45.30 13.23L45.30 13.23Q44.56 13.23 43.93 12.96Q43.30 12.68 42.85 12.18Q42.39 11.68 42.14 10.98Q41.89 10.28 41.89 9.41L41.89 9.41Q41.89 8.55 42.14 7.85Q42.39 7.14 42.85 6.64Q43.30 6.13 43.93 5.86Q44.56 5.59 45.30 5.59L45.30 5.59Q46.05 5.59 46.68 5.86Q47.31 6.13 47.76 6.64Q48.22 7.14 48.47 7.85Q48.72 8.55 48.72 9.41ZM47.36 9.41L47.36 9.41Q47.36 8.18 46.81 7.46Q46.26 6.73 45.30 6.73L45.30 6.73Q44.35 6.73 43.80 7.46Q43.25 8.18 43.25 9.41L43.25 9.41Q43.25 10.64 43.80 11.36Q44.35 12.08 45.30 12.08L45.30 12.08Q46.26 12.08 46.81 11.36Q47.36 10.64 47.36 9.41ZM50.55 13.05L50.55 5.98Q51.00 5.87 51.74 5.74Q52.49 5.61 53.45 5.61L53.45 5.61Q54.32 5.61 54.89 5.86Q55.47 6.10 55.81 6.54Q56.15 6.99 56.29 7.60Q56.43 8.22 56.43 8.96L56.43 8.96L56.43 13.05L55.13 13.05L55.13 9.24Q55.13 8.57 55.04 8.09Q54.95 7.62 54.74 7.32Q54.53 7.03 54.18 6.89Q53.83 6.76 53.31 6.76L53.31 6.76Q53.10 6.76 52.88 6.78Q52.65 6.79 52.45 6.81Q52.25 6.83 52.09 6.86Q51.93 6.89 51.86 6.90L51.86 6.90L51.86 13.05L50.55 13.05ZM58.59 13.05L58.59 5.98Q59.04 5.87 59.78 5.74Q60.52 5.61 61.49 5.61L61.49 5.61Q62.36 5.61 62.93 5.86Q63.50 6.10 63.85 6.54Q64.19 6.99 64.33 7.60Q64.47 8.22 64.47 8.96L64.47 8.96L64.47 13.05L63.17 13.05L63.17 9.24Q63.17 8.57 63.08 8.09Q62.99 7.62 62.78 7.32Q62.57 7.03 62.22 6.89Q61.87 6.76 61.35 6.76L61.35 6.76Q61.14 6.76 60.91 6.78Q60.69 6.79 60.49 6.81Q60.28 6.83 60.12 6.86Q59.96 6.89 59.89 6.90L59.89 6.90L59.89 13.05L58.59 13.05ZM66.22 9.42L66.22 9.42Q66.22 8.46 66.50 7.74Q66.78 7.01 67.24 6.54Q67.70 6.06 68.31 5.82Q68.91 5.59 69.54 5.59L69.54 5.59Q71.01 5.59 71.79 6.50Q72.58 7.42 72.58 9.30L72.58 9.30Q72.58 9.38 72.58 9.51Q72.58 9.65 72.56 9.76L72.56 9.76L67.58 9.76Q67.66 10.89 68.24 11.48Q68.81 12.07 70.03 12.07L70.03 12.07Q70.71 12.07 71.18 11.95Q71.65 11.83 71.89 11.72L71.89 11.72L72.07 12.81Q71.83 12.94 71.24 13.08Q70.64 13.22 69.89 13.22L69.89 13.22Q68.94 13.22 68.24 12.93Q67.55 12.64 67.10 12.14Q66.65 11.63 66.44 10.94Q66.22 10.25 66.22 9.42ZM67.61 8.71L71.22 8.71Q71.23 7.83 70.78 7.26Q70.32 6.69 69.52 6.69L69.52 6.69Q69.08 6.69 68.73 6.87Q68.39 7.04 68.15 7.32Q67.91 7.60 67.78 7.97Q67.65 8.33 67.61 8.71L67.61 8.71ZM77.62 13.22L77.62 13.22Q76.73 13.22 76.07 12.94Q75.40 12.66 74.95 12.15Q74.49 11.65 74.27 10.96Q74.05 10.26 74.05 9.42L74.05 9.42Q74.05 8.58 74.29 7.88Q74.54 7.18 74.98 6.67Q75.43 6.16 76.08 5.87Q76.73 5.59 77.53 5.59L77.53 5.59Q78.02 5.59 78.51 5.67Q79.00 5.75 79.45 5.94L79.45 5.94L79.16 7.04Q78.86 6.90 78.48 6.82Q78.09 6.73 77.66 6.73L77.66 6.73Q76.57 6.73 75.98 7.42Q75.40 8.11 75.40 9.42L75.40 9.42Q75.40 10.01 75.54 10.50Q75.67 10.99 75.96 11.34Q76.24 11.69 76.69 11.88Q77.14 12.07 77.78 12.07L77.78 12.07Q78.30 12.07 78.72 11.97Q79.14 11.87 79.38 11.76L79.38 11.76L79.56 12.85Q79.45 12.92 79.24 12.98Q79.03 13.05 78.76 13.10Q78.50 13.15 78.20 13.18Q77.90 13.22 77.62 13.22ZM82.18 3.51L82.18 5.77L84.94 5.77L84.94 6.86L82.18 6.86L82.18 10.22Q82.18 10.77 82.26 11.12Q82.35 11.48 82.52 11.68Q82.68 11.89 82.94 11.97Q83.19 12.05 83.52 12.05L83.52 12.05Q84.11 12.05 84.47 11.92Q84.83 11.79 84.97 11.73L84.97 11.73L85.22 12.81Q85.02 12.91 84.53 13.05Q84.04 13.20 83.41 13.20L83.41 13.20Q82.67 13.20 82.19 13.01Q81.70 12.82 81.41 12.45Q81.12 12.07 81.00 11.52Q80.88 10.96 80.88 10.23L80.88 10.23L80.88 3.74L82.18 3.51ZM95.24 5.82L95.24 5.82Q95.24 6.33 95.04 6.80Q94.84 7.27 94.50 7.72Q94.16 8.18 93.74 8.62Q93.32 9.06 92.90 9.48L92.90 9.48Q92.67 9.72 92.35 10.04Q92.04 10.36 91.76 10.71Q91.48 11.06 91.29 11.38Q91.10 11.70 91.10 11.94L91.10 11.94L95.56 11.94L95.56 13.05L89.68 13.05Q89.67 12.96 89.67 12.88Q89.67 12.80 89.67 12.73L89.67 12.73Q89.67 12.07 89.89 11.50Q90.10 10.93 90.45 10.43Q90.80 9.93 91.24 9.48Q91.67 9.03 92.09 8.61L92.09 8.61Q92.44 8.27 92.76 7.95Q93.07 7.62 93.32 7.29Q93.56 6.96 93.71 6.61Q93.86 6.26 93.86 5.87L93.86 5.87Q93.86 5.45 93.72 5.15Q93.59 4.86 93.37 4.66Q93.14 4.47 92.84 4.38Q92.54 4.28 92.20 4.28L92.20 4.28Q91.80 4.28 91.46 4.40Q91.13 4.51 90.86 4.65Q90.59 4.80 90.41 4.96Q90.23 5.12 90.13 5.21L90.13 5.21L89.49 4.28Q89.61 4.14 89.87 3.94Q90.12 3.74 90.47 3.56Q90.82 3.37 91.25 3.25Q91.69 3.12 92.19 3.12L92.19 3.12Q93.72 3.12 94.48 3.83Q95.24 4.54 95.24 5.82ZM97.30 8.19L97.30 8.19Q97.30 5.75 98.16 4.44Q99.02 3.12 100.55 3.12L100.55 3.12Q102.07 3.12 102.93 4.44Q103.80 5.75 103.80 8.19L103.80 8.19Q103.80 10.63 102.93 11.94Q102.07 13.26 100.55 13.26L100.55 13.26Q99.02 13.26 98.16 11.94Q97.30 10.63 97.30 8.19ZM102.42 8.19L102.42 8.19Q102.42 7.39 102.33 6.68Q102.24 5.96 102.02 5.43Q101.81 4.90 101.44 4.58Q101.08 4.27 100.55 4.27L100.55 4.27Q100.02 4.27 99.65 4.58Q99.29 4.90 99.07 5.43Q98.85 5.96 98.76 6.68Q98.67 7.39 98.67 8.19L98.67 8.19Q98.67 8.99 98.76 9.70Q98.85 10.42 99.07 10.95Q99.29 11.48 99.65 11.79Q100.02 12.11 100.55 12.11L100.55 12.11Q101.08 12.11 101.44 11.79Q101.81 11.48 102.02 10.95Q102.24 10.42 102.33 9.70Q102.42 8.99 102.42 8.19ZM111.03 5.82L111.03 5.82Q111.03 6.33 110.83 6.80Q110.63 7.27 110.29 7.72Q109.96 8.18 109.54 8.62Q109.12 9.06 108.70 9.48L108.70 9.48Q108.46 9.72 108.14 10.04Q107.83 10.36 107.55 10.71Q107.27 11.06 107.08 11.38Q106.89 11.70 106.89 11.94L106.89 11.94L111.36 11.94L111.36 13.05L105.48 13.05Q105.46 12.96 105.46 12.88Q105.46 12.80 105.46 12.73L105.46 12.73Q105.46 12.07 105.68 11.50Q105.90 10.93 106.25 10.43Q106.60 9.93 107.03 9.48Q107.46 9.03 107.88 8.61L107.88 8.61Q108.23 8.27 108.55 7.95Q108.86 7.62 109.11 7.29Q109.35 6.96 109.50 6.61Q109.65 6.26 109.65 5.87L109.65 5.87Q109.65 5.45 109.52 5.15Q109.38 4.86 109.16 4.66Q108.93 4.47 108.63 4.38Q108.33 4.28 108.00 4.28L108.00 4.28Q107.59 4.28 107.25 4.40Q106.92 4.51 106.65 4.65Q106.39 4.80 106.20 4.96Q106.02 5.12 105.92 5.21L105.92 5.21L105.28 4.28Q105.41 4.14 105.66 3.94Q105.91 3.74 106.26 3.56Q106.61 3.37 107.04 3.25Q107.48 3.12 107.98 3.12L107.98 3.12Q109.51 3.12 110.27 3.83Q111.03 4.54 111.03 5.82ZM115.18 7.08L115.18 7.08Q117.29 7.17 118.28 8.01Q119.27 8.85 119.27 10.29L119.27 10.29Q119.27 10.93 119.05 11.48Q118.83 12.03 118.39 12.42Q117.95 12.81 117.28 13.03Q116.61 13.26 115.68 13.26L115.68 13.26Q115.32 13.26 114.94 13.20Q114.56 13.15 114.24 13.06Q113.92 12.98 113.67 12.89Q113.41 12.81 113.30 12.75L113.30 12.75L113.55 11.62Q113.79 11.73 114.33 11.91Q114.87 12.10 115.65 12.10L115.65 12.10Q116.28 12.10 116.71 11.96Q117.14 11.82 117.40 11.58Q117.67 11.34 117.79 11.03Q117.91 10.71 117.91 10.36L117.91 10.36Q117.91 9.83 117.73 9.41Q117.54 9.00 117.08 8.72Q116.62 8.44 115.85 8.29Q115.08 8.15 113.90 8.15L113.90 8.15Q113.99 7.46 114.04 6.86Q114.09 6.26 114.13 5.68Q114.17 5.11 114.20 4.54Q114.23 3.98 114.25 3.35L114.25 3.35L118.93 3.35L118.93 4.45L115.39 4.45Q115.37 4.66 115.35 5.02Q115.32 5.38 115.29 5.76Q115.26 6.15 115.23 6.51Q115.21 6.87 115.18 7.08Z"></path></g><!----><!----></svg>